<svg width="70" height="40" viewBox="0 0 70 40" fill="none" xmlns="http://www.w3.org/2000/svg">
<path d="M36.6935 11.0646L37.4561 10.3196L22.9987 14.9989L21.8781 18.3346L36.6935 11.0646Z" fill="#F6F3E3"/>
<path d="M17.7222 16.2497L8.50383 16.5903C8.41869 16.4764 8.32728 16.3662 8.22836 16.2635C6.94115 14.925 4.68727 14.7434 2.8704 15.829C1.86117 16.4313 1.11238 17.3391 0.759271 18.3847C0.394895 19.4628 0.495067 20.5584 1.03975 21.4675C1.17373 21.6941 1.33401 21.9032 1.51557 22.091C2.50101 23.114 4.05118 23.4609 5.53874 23.079C5.58131 23.1604 5.63265 23.2405 5.70026 23.3106C6.08092 23.7051 6.7095 23.7176 7.10518 23.3382C7.41446 23.0402 7.48583 22.5906 7.3218 22.22C8.1044 21.6327 8.68665 20.8502 8.98466 19.9674C9.18876 19.3664 9.24135 18.7603 9.15871 18.1831L16.599 18.4197L17.7222 16.2497ZM7.85522 19.5905C7.59352 20.3681 7.02754 21.048 6.26123 21.505C4.91516 22.3102 3.27985 22.2087 2.37204 21.2684C2.25309 21.1432 2.14791 21.0067 2.06026 20.8614C1.69713 20.2554 1.63578 19.5116 1.88621 18.7691C2.14791 17.9915 2.71388 17.3116 3.47895 16.8533C4.82501 16.0481 6.46157 16.1483 7.36813 17.0912C7.48709 17.2152 7.59227 17.3529 7.67992 17.4994C8.04554 18.1042 8.10565 18.848 7.85522 19.5905Z" fill="#F6F3E3"/>
<path d="M19.5741 39.8502C19.6367 39.5935 18.5812 36.7236 19.6029 35.6205C20.0362 35.2824 20.4193 34.8667 20.7298 34.3896C21.8843 32.614 21.7892 30.3552 20.502 29.0179C20.4669 28.9815 20.4268 28.9502 20.3905 28.9139L21.0191 18.4635L27.216 0.000488281L26.2644 1.22384L17.4993 18.1855L18.9618 19.7745L18.4059 27.9798C17.8962 27.9197 17.3628 27.9648 16.8281 28.1213C15.7701 28.4344 14.8347 29.1468 14.1936 30.1323C13.0391 31.9078 13.1343 34.1667 14.4215 35.5053C14.6031 35.6906 14.8072 35.8596 15.0263 36.0011C15.5209 36.3242 16.0781 36.5045 16.6629 36.5508C18.1016 37.1944 18.1942 39.1878 18.367 39.5985C18.5423 40.0143 19.5065 40.1207 19.5741 39.8502ZM19.0582 18.2093C18.8203 17.9601 18.8278 17.5657 19.0758 17.3265C19.3237 17.0899 19.7181 17.0961 19.9573 17.3453C20.1952 17.592 20.1877 17.9877 19.9397 18.2256C19.6906 18.4647 19.2961 18.4572 19.0582 18.2093ZM17.7597 35.2573C17.0072 35.4802 16.2672 35.3876 15.6749 35.0044C15.5309 34.9105 15.3982 34.8016 15.2792 34.6763C14.3714 33.7347 14.3351 32.0944 15.1903 30.7821C15.6762 30.0321 16.3774 29.4949 17.165 29.262C17.9175 29.0391 18.6563 29.1306 19.2485 29.5137C19.3925 29.6089 19.5253 29.7191 19.6442 29.8443C20.552 30.7859 20.5871 32.425 19.7331 33.7397C19.246 34.486 18.5448 35.0269 17.7597 35.2573Z" fill="#F6F3E3"/>
<path d="M37.78 6.79994C35.9667 6.79994 35.06 8.30661 35.06 11.3199C35.06 14.3333 35.98 15.8399 37.82 15.8399C38.5133 15.8399 39.08 15.5866 39.52 15.0799C39.9733 14.5733 40.2867 13.9199 40.46 13.1199L40.82 13.1599C40.62 14.1333 40.22 14.9199 39.62 15.5199C39.02 16.1066 38.26 16.3999 37.34 16.3999C35.9667 16.3999 34.92 15.9399 34.2 15.0199C33.48 14.0866 33.12 12.8666 33.12 11.3599C33.12 9.85327 33.48 8.65327 34.2 7.75994C34.9333 6.85327 36.02 6.39994 37.46 6.39994C38.38 6.39994 39.1267 6.59994 39.7 6.99994C40.2733 7.39994 40.56 8.00661 40.56 8.81994C40.56 9.21994 40.4267 9.55994 40.16 9.83994C39.9067 10.1066 39.6 10.2399 39.24 10.2399C38.8933 10.2399 38.6067 10.1399 38.38 9.93994C38.1667 9.72661 38.06 9.47327 38.06 9.17994C38.06 8.87327 38.1467 8.61994 38.32 8.41994C38.4933 8.20661 38.7267 8.09994 39.02 8.09994C39.4733 8.09994 39.74 8.27328 39.82 8.61994C39.8333 8.73994 39.8933 8.79994 40 8.79994C40.12 8.79994 40.18 8.73994 40.18 8.61994C40.18 8.16661 39.9733 7.75327 39.56 7.37994C39.16 6.99327 38.5667 6.79994 37.78 6.79994Z" fill="#F6F3E3"/>
<path d="M46.3997 15.6999V15.9999H41.9797V15.6999H43.2997V2.49994H41.8797V2.19994H42.2997C43.353 2.19994 44.293 2.11327 45.1197 1.93994V8.53994H45.2397C45.4664 7.89994 45.8464 7.38661 46.3797 6.99994C46.9264 6.59994 47.533 6.39994 48.1997 6.39994C49.3597 6.39994 50.153 6.74661 50.5797 7.43994C51.0064 8.11994 51.2197 9.13994 51.2197 10.4999V15.6999H52.5397V15.9999H48.1197V15.6999H49.4397V10.7799C49.4397 9.27327 49.3264 8.27994 49.0997 7.79994C48.993 7.58661 48.8264 7.39327 48.5997 7.21994C48.3864 7.04661 48.0664 6.95994 47.6397 6.95994C47.213 6.95994 46.8064 7.11327 46.4197 7.41994C46.0464 7.72661 45.7664 8.14661 45.5797 8.67994C45.2464 9.62661 45.0797 10.7599 45.0797 12.0799V15.6999H46.3997Z" fill="#F6F3E3"/>
<path d="M56.8775 15.6999H58.1975V15.9999H53.7775V15.6999H55.0975V7.09994H53.6775V6.79994H54.0975C55.1375 6.79994 56.0642 6.71327 56.8775 6.53994V15.6999ZM55.0775 4.61994C54.8642 4.39327 54.7575 4.11327 54.7575 3.77994C54.7575 3.44661 54.8642 3.16661 55.0775 2.93994C55.3042 2.71327 55.5842 2.59994 55.9175 2.59994C56.2508 2.59994 56.5308 2.71327 56.7575 2.93994C56.9842 3.16661 57.0975 3.44661 57.0975 3.77994C57.0975 4.11327 56.9842 4.39327 56.7575 4.61994C56.5308 4.83327 56.2508 4.93994 55.9175 4.93994C55.5842 4.93994 55.3042 4.83327 55.0775 4.61994Z" fill="#F6F3E3"/>
<path d="M63.9955 10.7599L62.7155 10.9799V15.6999H64.0355V15.9999H59.6155V15.6999H60.9355V2.49994H59.5155V2.19994H59.9355C60.9755 2.19994 61.9021 2.11327 62.7155 1.93994V10.6399C65.3555 10.2933 66.6755 9.43994 66.6755 8.07994C66.6755 7.67994 66.5688 7.35994 66.3555 7.11994C66.1555 6.87994 65.9021 6.75994 65.5955 6.75994C65.4621 6.75994 65.3955 6.81327 65.3955 6.91994C65.3955 7.02661 65.4555 7.09327 65.5755 7.11994C65.9221 7.19994 66.0955 7.45994 66.0955 7.89994C66.0955 8.17994 65.9888 8.41328 65.7755 8.59994C65.5755 8.77328 65.3221 8.85994 65.0155 8.85994C64.7221 8.85994 64.4688 8.75327 64.2555 8.53994C64.0555 8.31327 63.9555 8.02661 63.9555 7.67994C63.9555 7.33327 64.0888 7.03327 64.3555 6.77994C64.6355 6.52661 65.0021 6.39994 65.4555 6.39994C65.9088 6.39994 66.2821 6.55327 66.5755 6.85994C66.8688 7.15327 67.0155 7.55994 67.0155 8.07994C67.0155 9.18661 66.3221 9.98661 64.9355 10.4799V10.5199C65.9755 10.5733 66.6555 10.8466 66.9755 11.3399C67.2955 11.8333 67.4555 12.6399 67.4555 13.7599V14.5199C67.4555 15.0266 67.4955 15.3933 67.5755 15.6199C67.6688 15.8333 67.8355 15.9399 68.0755 15.9399C68.1688 15.9399 68.2888 15.9199 68.4355 15.8799L68.4755 16.1199C68.1288 16.2133 67.7688 16.2599 67.3955 16.2599C66.2488 16.2599 65.6755 15.5999 65.6755 14.2799V13.1999C65.6755 11.5733 65.1555 10.7599 64.1155 10.7599H63.9955Z" fill="#F6F3E3"/>
<path d="M37.78 26.7999C35.9667 26.7999 35.06 28.3066 35.06 31.3199C35.06 34.3333 35.98 35.8399 37.82 35.8399C38.5133 35.8399 39.08 35.5866 39.52 35.0799C39.9733 34.5733 40.2867 33.9199 40.46 33.1199L40.82 33.1599C40.62 34.1333 40.22 34.9199 39.62 35.5199C39.02 36.1066 38.26 36.3999 37.34 36.3999C35.9667 36.3999 34.92 35.9399 34.2 35.0199C33.48 34.0866 33.12 32.8666 33.12 31.3599C33.12 29.8533 33.48 28.6533 34.2 27.7599C34.9333 26.8533 36.02 26.3999 37.46 26.3999C38.38 26.3999 39.1267 26.5999 39.7 26.9999C40.2733 27.3999 40.56 28.0066 40.56 28.8199C40.56 29.2199 40.4267 29.5599 40.16 29.8399C39.9067 30.1066 39.6 30.2399 39.24 30.2399C38.8933 30.2399 38.6067 30.1399 38.38 29.9399C38.1667 29.7266 38.06 29.4733 38.06 29.1799C38.06 28.8733 38.1467 28.6199 38.32 28.4199C38.4933 28.2066 38.7267 28.0999 39.02 28.0999C39.4733 28.0999 39.74 28.2733 39.82 28.6199C39.8333 28.7399 39.8933 28.7999 40 28.7999C40.12 28.7999 40.18 28.7399 40.18 28.6199C40.18 28.1666 39.9733 27.7533 39.56 27.3799C39.16 26.9933 38.5667 26.7999 37.78 26.7999Z" fill="#F6F3E3"/>
<path d="M46.3997 35.6999V35.9999H41.9797V35.6999H43.2997V22.4999H41.8797V22.1999H42.2997C43.353 22.1999 44.293 22.1133 45.1197 21.9399V28.5399H45.2397C45.4664 27.8999 45.8464 27.3866 46.3797 26.9999C46.9264 26.5999 47.533 26.3999 48.1997 26.3999C49.3597 26.3999 50.153 26.7466 50.5797 27.4399C51.0064 28.1199 51.2197 29.1399 51.2197 30.4999V35.6999H52.5397V35.9999H48.1197V35.6999H49.4397V30.7799C49.4397 29.2733 49.3264 28.2799 49.0997 27.7999C48.993 27.5866 48.8264 27.3933 48.5997 27.2199C48.3864 27.0466 48.0664 26.9599 47.6397 26.9599C47.213 26.9599 46.8064 27.1133 46.4197 27.4199C46.0464 27.7266 45.7664 28.1466 45.5797 28.6799C45.2464 29.6266 45.0797 30.7599 45.0797 32.0799V35.6999H46.3997Z" fill="#F6F3E3"/>
<path d="M56.8775 35.6999H58.1975V35.9999H53.7775V35.6999H55.0975V27.0999H53.6775V26.7999H54.0975C55.1375 26.7999 56.0642 26.7133 56.8775 26.5399V35.6999ZM55.0775 24.6199C54.8642 24.3933 54.7575 24.1133 54.7575 23.7799C54.7575 23.4466 54.8642 23.1666 55.0775 22.9399C55.3042 22.7133 55.5842 22.5999 55.9175 22.5999C56.2508 22.5999 56.5308 22.7133 56.7575 22.9399C56.9842 23.1666 57.0975 23.4466 57.0975 23.7799C57.0975 24.1133 56.9842 24.3933 56.7575 24.6199C56.5308 24.8333 56.2508 24.9399 55.9175 24.9399C55.5842 24.9399 55.3042 24.8333 55.0775 24.6199Z" fill="#F6F3E3"/>
<path d="M63.9955 30.7599L62.7155 30.9799V35.6999H64.0355V35.9999H59.6155V35.6999H60.9355V22.4999H59.5155V22.1999H59.9355C60.9755 22.1999 61.9021 22.1133 62.7155 21.9399V30.6399C65.3555 30.2933 66.6755 29.4399 66.6755 28.0799C66.6755 27.6799 66.5688 27.3599 66.3555 27.1199C66.1555 26.8799 65.9021 26.7599 65.5955 26.7599C65.4621 26.7599 65.3955 26.8133 65.3955 26.9199C65.3955 27.0266 65.4555 27.0933 65.5755 27.1199C65.9221 27.1999 66.0955 27.4599 66.0955 27.8999C66.0955 28.1799 65.9888 28.4133 65.7755 28.5999C65.5755 28.7733 65.3221 28.8599 65.0155 28.8599C64.7221 28.8599 64.4688 28.7533 64.2555 28.5399C64.0555 28.3133 63.9555 28.0266 63.9555 27.6799C63.9555 27.3333 64.0888 27.0333 64.3555 26.7799C64.6355 26.5266 65.0021 26.3999 65.4555 26.3999C65.9088 26.3999 66.2821 26.5533 66.5755 26.8599C66.8688 27.1533 67.0155 27.5599 67.0155 28.0799C67.0155 29.1866 66.3221 29.9866 64.9355 30.4799V30.5199C65.9755 30.5733 66.6555 30.8466 66.9755 31.3399C67.2955 31.8333 67.4555 32.6399 67.4555 33.7599V34.5199C67.4555 35.0266 67.4955 35.3933 67.5755 35.6199C67.6688 35.8333 67.8355 35.9399 68.0755 35.9399C68.1688 35.9399 68.2888 35.9199 68.4355 35.8799L68.4755 36.1199C68.1288 36.2133 67.7688 36.2599 67.3955 36.2599C66.2488 36.2599 65.6755 35.5999 65.6755 34.2799V33.1999C65.6755 31.5733 65.1555 30.7599 64.1155 30.7599H63.9955Z" fill="#F6F3E3"/>
</svg>
